{
  "accessors": [
    {
      "bufferView": 2,
      "componentType": 5126,
      "count": 548,
      "max": [
        0.9994370937347412,
        0.9994370937347412,
        1.0055537223815918
      ],
      "min": [
        -0.9994370937347412,
        -0.9994373321533203,
        -5.775644302368164
      ],
      "type": "VEC3"
    },
    {
      "bufferView": 2,
      "byteOffset": 6576,
      "componentType": 5126,
      "count": 548,
      "max": [
        0.999437153339386,
        0.999437153339386,
        0.6256917715072632
      ],
      "min": [
        -0.999437153339386,
        -0.999437153339386,
        -1.0
      ],
      "type": "VEC3"
    },
    {
      "bufferView": 1,
      "componentType": 5126,
      "count": 548,
      "max": [
        0.9786065220832825,
        0.9923714399337769
      ],
      "min": [
        0.0076285782270133495,
        0.007628584746271372
      ],
      "type": "VEC2"
    },
    {
      "bufferView": 0,
      "componentType": 5125,
      "count": 2082,
      "type": "SCALAR"
    },
    {
      "bufferView": 2,
      "byteOffset": 13152,
      "componentType": 5126,
      "count": 518,
      "max": [
        0.9994370937347412,
        0.9994370937347412,
        2.6341586112976074
      ],
      "min": [
        -0.46057185530662537,
        -0.9994373321533203,
        -3.947533369064331
      ],
      "type": "VEC3"
    },
    {
      "bufferView": 2,
      "byteOffset": 19368,
      "componentType": 5126,
      "count": 518,
      "max": [
        0.999437153339386,
        0.999437153339386,
        1.0
      ],
      "min": [
        -0.999437153339386,
        -0.999437153339386,
        -0.6634191870689392
      ],
      "type": "VEC3"
    },
    {
      "bufferView": 1,
      "byteOffset": 4384,
      "componentType": 5126,
      "count": 518,
      "max": [
        0.8757574558258057,
        0.8370107412338257
      ],
      "min": [
        0.0076285782270133495,
        0.007628585211932659
      ],
      "type": "VEC2"
    },
    {
      "bufferView": 1,
      "byteOffset": 8528,
      "componentType": 5126,
      "count": 518,
      "max": [
        0.8757574558258057,
        0.8370107412338257
      ],
      "min": [
        0.0076285782270133495,
        0.007628585211932659
      ],
      "type": "VEC2"
    },
    {
      "bufferView": 0,
      "byteOffset": 8328,
      "componentType": 5125,
      "count": 1362,
      "type": "SCALAR"
    }
  ],
  "asset": {
    "extras": {
      "author": "CrZ (https://sketchfab.com/CrZZ)",
      "license": "CC-BY-4.0 (http://creativecommons.org/licenses/by/4.0/)",
      "source": "https://sketchfab.com/3d-models/wine-bottle-666073e98eba48da9d3f0a5aec892a89",
      "title": "Wine Bottle"
    },
    "generator": "Sketchfab-16.7.0",
    "version": "2.0"
  },
  "bufferViews": [
    {
      "buffer": 0,
      "byteLength": 13776,
      "name": "floatBufferViews",
      "target": 34963
    },
    {
      "buffer": 0,
      "byteLength": 12672,
      "byteOffset": 13776,
      "byteStride": 8,
      "name": "floatBufferViews",
      "target": 34962
    },
    {
      "buffer": 0,
      "byteLength": 25584,
      "byteOffset": 26448,
      "byteStride": 12,
      "name": "floatBufferViews",
      "target": 34962
    }
  ],
  "buffers": [
    {
      "byteLength": 52032,
      "uri": "scene.bin"
    }
  ],
  "extensionsUsed": [
    "KHR_materials_transmission",
    "KHR_materials_specular"
  ],
  "images": [
    {
      "uri": "textures/BottleGlass_metallicRoughness.png"
    },
    {
      "uri": "textures/BottleLabel_baseColor.png"
    },
    {
      "uri": "textures/BottleLabel_metallicRoughness.png"
    }
  ],
  "materials": [
    {
      "alphaMode": "BLEND",
      "doubleSided": true,
      "extensions": {
        "KHR_materials_specular": {
          "specularColorFactor": [
            1.0,
            1.0,
            1.0
          ],
          "specularFactor": 1.0
        },
        "KHR_materials_transmission": {
          "transmissionFactor": 0.7211420072899271
        }
      },
      "name": "BottleGlass",
      "pbrMetallicRoughness": {
        "baseColorFactor": [
          0.8,
          0.8,
          0.8,
          0.278857992710073
        ],
        "metallicRoughnessTexture": {
          "index": 0
        }
      }
    },
    {
      "doubleSided": true,
      "name": "BottleLabel",
      "pbrMetallicRoughness": {
        "baseColorTexture": {
          "index": 1
        },
        "metallicRoughnessTexture": {
          "index": 2
        }
      }
    }
  ],
  "meshes": [
    {
      "name": "BottleNotBaked.001_BottleGlass_0",
      "primitives": [
        {
          "attributes": {
            "NORMAL": 1,
            "POSITION": 0,
            "TEXCOORD_0": 2
          },
          "indices": 3,
          "material": 0,
          "mode": 4
        }
      ]
    },
    {
      "name": "BottleNotBaked.001_BottleLabel_0",
      "primitives": [
        {
          "attributes": {
            "NORMAL": 5,
            "POSITION": 4,
            "TEXCOORD_0": 6,
            "TEXCOORD_1": 7
          },
          "indices": 8,
          "material": 1,
          "mode": 4
        }
      ]
    }
  ],
  "nodes": [
    {
      "children": [
        1
      ],
      "matrix": [
        1.0,
        0.0,
        0.0,
        0.0,
        0.0,
        2.220446049250313e-16,
        -1.0,
        0.0,
        0.0,
        1.0,
        2.220446049250313e-16,
        0.0,
        0.0,
        0.0,
        0.0,
        1.0
      ],
      "name": "Sketchfab_model"
    },
    {
      "children": [
        2
      ],
      "matrix": [
        0.009999999776482582,
        0.0,
        0.0,
        0.0,
        0.0,
        0.0,
        0.009999999776482582,
        0.0,
        0.0,
        -0.009999999776482582,
        0.0,
        0.0,
        0.0,
        0.0,
        0.0,
        1.0
      ],
      "name": "WineBottle.fbx"
    },
    {
      "children": [
        3
      ],
      "name": "RootNode"
    },
    {
      "children": [
        4,
        5
      ],
      "matrix": [
        100.0,
        0.0,
        0.0,
        0.0,
        0.0,
        -1.629206793918314e-05,
        -99.99999999999868,
        0.0,
        0.0,
        99.99999999999868,
        -1.629206793918314e-05,
        0.0,
        5.174014461317711e-08,
        318.92718505859375,
        411.8047790527344,
        1.0
      ],
      "name": "BottleNotBaked.001"
    },
    {
      "mesh": 0,
      "name": "BottleNotBaked.001_BottleGlass_0"
    },
    {
      "mesh": 1,
      "name": "BottleNotBaked.001_BottleLabel_0"
    }
  ],
  "samplers": [
    {
      "magFilter": 9729,
      "minFilter": 9987,
      "wrapS": 10497,
      "wrapT": 10497
    }
  ],
  "scene": 0,
  "scenes": [
    {
      "name": "Sketchfab_Scene",
      "nodes": [
        0
      ]
    }
  ],
  "textures": [
    {
      "sampler": 0,
      "source": 0
    },
    {
      "sampler": 0,
      "source": 1
    },
    {
      "sampler": 0,
      "source": 2
    }
  ]
}
